<?xml version="1.0" encoding="UTF-8"?>
<!DOCTYPE svg PUBLIC "-//W3C//DTD SVG 1.1//EN" "http://www.w3.org/Graphics/SVG/1.1/DTD/svg11.dtd">
<svg version="1.2" width="328.13mm" height="464.06mm" viewBox="0 0 32813 46406" preserveAspectRatio="xMidYMid" fill-rule="evenodd" stroke-width="28.222" stroke-linejoin="round" xmlns="http://www.w3.org/2000/svg" xmlns:ooo="http://xml.openoffice.org/svg/export" xmlns:xlink="http://www.w3.org/1999/xlink" xmlns:presentation="http://sun.com/xmlns/staroffice/presentation" xmlns:smil="http://www.w3.org/2001/SMIL20/" xmlns:anim="urn:oasis:names:tc:opendocument:xmlns:animation:1.0" xml:space="preserve">
 <defs class="ClipPathGroup">
  <clipPath id="presentation_clip_path" clipPathUnits="userSpaceOnUse">
   <rect x="0" y="0" width="32813" height="46406"/>
  </clipPath>
  <clipPath id="presentation_clip_path_shrink" clipPathUnits="userSpaceOnUse">
   <rect x="32" y="46" width="32748" height="46314"/>
  </clipPath>
 </defs>
 <defs class="TextShapeIndex">
  <g ooo:slide="id1" ooo:id-list="id3 id4 id5 id6 id7 id8 id9 id10 id11 id12 id13 id14 id15 id16 id17 id18 id19 id20 id21 id22 id23 id24 id25 id26"/>
 </defs>
 <defs class="EmbeddedBulletChars">
  <g id="bullet-char-template-57356" transform="scale(0.00048828125,-0.00048828125)">
   <path d="M 580,1141 L 1163,571 580,0 -4,571 580,1141 Z"/>
  </g>
  <g id="bullet-char-template-57354" transform="scale(0.00048828125,-0.00048828125)">
   <path d="M 8,1128 L 1137,1128 1137,0 8,0 8,1128 Z"/>
  </g>
  <g id="bullet-char-template-10146" transform="scale(0.00048828125,-0.00048828125)">
   <path d="M 174,0 L 602,739 174,1481 1456,739 174,0 Z M 1358,739 L 309,1346 659,739 1358,739 Z"/>
  </g>
  <g id="bullet-char-template-10132" transform="scale(0.00048828125,-0.00048828125)">
   <path d="M 2015,739 L 1276,0 717,0 1260,543 174,543 174,936 1260,936 717,1481 1274,1481 2015,739 Z"/>
  </g>
  <g id="bullet-char-template-10007" transform="scale(0.00048828125,-0.00048828125)">
   <path d="M 0,-2 C -7,14 -16,27 -25,37 L 356,567 C 262,823 215,952 215,954 215,979 228,992 255,992 264,992 276,990 289,987 310,991 331,999 354,1012 L 381,999 492,748 772,1049 836,1024 860,1049 C 881,1039 901,1025 922,1006 886,937 835,863 770,784 769,783 710,716 594,584 L 774,223 C 774,196 753,168 711,139 L 727,119 C 717,90 699,76 672,76 641,76 570,178 457,381 L 164,-76 C 142,-110 111,-127 72,-127 30,-127 9,-110 8,-76 1,-67 -2,-52 -2,-32 -2,-23 -1,-13 0,-2 Z"/>
  </g>
  <g id="bullet-char-template-10004" transform="scale(0.00048828125,-0.00048828125)">
   <path d="M 285,-33 C 182,-33 111,30 74,156 52,228 41,333 41,471 41,549 55,616 82,672 116,743 169,778 240,778 293,778 328,747 346,684 L 369,508 C 377,444 397,411 428,410 L 1163,1116 C 1174,1127 1196,1133 1229,1133 1271,1133 1292,1118 1292,1087 L 1292,965 C 1292,929 1282,901 1262,881 L 442,47 C 390,-6 338,-33 285,-33 Z"/>
  </g>
  <g id="bullet-char-template-9679" transform="scale(0.00048828125,-0.00048828125)">
   <path d="M 813,0 C 632,0 489,54 383,161 276,268 223,411 223,592 223,773 276,916 383,1023 489,1130 632,1184 813,1184 992,1184 1136,1130 1245,1023 1353,916 1407,772 1407,592 1407,412 1353,268 1245,161 1136,54 992,0 813,0 Z"/>
  </g>
  <g id="bullet-char-template-8226" transform="scale(0.00048828125,-0.00048828125)">
   <path d="M 346,457 C 273,457 209,483 155,535 101,586 74,649 74,723 74,796 101,859 155,911 209,963 273,989 346,989 419,989 480,963 531,910 582,859 608,796 608,723 608,648 583,586 532,535 482,483 420,457 346,457 Z"/>
  </g>
  <g id="bullet-char-template-8211" transform="scale(0.00048828125,-0.00048828125)">
   <path d="M -4,459 L 1135,459 1135,606 -4,606 -4,459 Z"/>
  </g>
  <g id="bullet-char-template-61548" transform="scale(0.00048828125,-0.00048828125)">
   <path d="M 173,740 C 173,903 231,1043 346,1159 462,1274 601,1332 765,1332 928,1332 1067,1274 1183,1159 1299,1043 1357,903 1357,740 1357,577 1299,437 1183,322 1067,206 928,148 765,148 601,148 462,206 346,322 231,437 173,577 173,740 Z"/>
  </g>
 </defs>
 <defs class="TextEmbeddedBitmaps"/>
 <g>
  <g id="id2" class="Master_Slide">
   <g id="bg-id2" class="Background"/>
   <g id="bo-id2" class="BackgroundObjects"/>
  </g>
 </g>
 <g class="SlideGroup">
  <g>
   <g id="container-id1">
    <g id="id1" class="Slide" clip-path="url(#presentation_clip_path)">
     <g class="Page">
      <g class="com.sun.star.drawing.PolyPolygonShape">
       <g id="id3">
        <rect class="BoundingBox" stroke="none" fill="none" x="10346" y="14859" width="16325" height="11549"/>
       </g>
      </g>
      <g class="com.sun.star.drawing.PolyPolygonShape">
       <g id="id4">
        <rect class="BoundingBox" stroke="none" fill="none" x="10346" y="14859" width="16320" height="11546"/>
        <path fill="rgb(243,123,112)" stroke="none" d="M 11542,26403 L 10347,17644 15920,15655 26665,14859 15521,20831 11542,26403 Z"/>
       </g>
      </g>
      <g class="com.sun.star.drawing.PolyPolygonShape">
       <g id="id5">
        <rect class="BoundingBox" stroke="none" fill="none" x="11542" y="14859" width="15129" height="11549"/>
       </g>
      </g>
      <g class="com.sun.star.drawing.PolyPolygonShape">
       <g id="id6">
        <rect class="BoundingBox" stroke="none" fill="none" x="11542" y="14859" width="15128" height="11546"/>
        <path fill="rgb(248,170,151)" stroke="none" d="M 12338,19636 L 11542,26403 26668,14859 12338,19636 Z"/>
       </g>
      </g>
      <g class="com.sun.star.drawing.PolyPolygonShape">
       <g id="id7">
        <rect class="BoundingBox" stroke="none" fill="none" x="12336" y="14859" width="14335" height="9038"/>
       </g>
      </g>
      <g class="com.sun.star.drawing.ClosedBezierShape">
       <g id="id8">
        <rect class="BoundingBox" stroke="none" fill="none" x="12337" y="14859" width="14333" height="9034"/>
        <path fill="rgb(246,142,118)" stroke="none" d="M 12338,19636 L 19984,23841 C 20163,23941 20387,23888 20502,23719 L 26668,14859 12338,19636 Z"/>
       </g>
      </g>
      <g class="com.sun.star.drawing.PolyPolygonShape">
       <g id="id9">
        <rect class="BoundingBox" stroke="none" fill="none" x="6354" y="14859" width="20316" height="2792"/>
       </g>
      </g>
      <g class="com.sun.star.drawing.ClosedBezierShape">
       <g id="id10">
        <rect class="BoundingBox" stroke="none" fill="none" x="6355" y="14859" width="20316" height="2790"/>
        <path fill="rgb(246,142,118)" stroke="none" d="M 10351,17648 L 6566,15609 C 6201,15413 6341,14859 6755,14859 L 26669,14859 10351,17648 Z"/>
       </g>
      </g>
      <g class="com.sun.star.drawing.PolyPolygonShape">
       <g id="id11">
        <rect class="BoundingBox" stroke="none" fill="none" x="7644" y="29789" width="1103" height="816"/>
       </g>
      </g>
      <g class="com.sun.star.drawing.ClosedBezierShape">
       <g id="id12">
        <rect class="BoundingBox" stroke="none" fill="none" x="7646" y="29792" width="1099" height="813"/>
        <path fill="rgb(204,204,204)" stroke="none" d="M 8045,30603 C 7836,30603 7662,30440 7647,30229 7633,30009 7801,29818 8020,29806 8125,29798 8233,29793 8339,29793 8341,29793 8343,29793 8346,29793 8562,29793 8741,29967 8743,30185 8746,30406 8571,30587 8349,30590 8258,30592 8165,30597 8072,30600 8062,30600 8054,30603 8045,30603 Z"/>
       </g>
      </g>
      <g class="com.sun.star.drawing.PolyPolygonShape">
       <g id="id13">
        <rect class="BoundingBox" stroke="none" fill="none" x="9095" y="29889" width="1365" height="951"/>
       </g>
      </g>
      <g class="com.sun.star.drawing.ClosedBezierShape">
       <g id="id14">
        <rect class="BoundingBox" stroke="none" fill="none" x="9096" y="29890" width="1363" height="947"/>
        <path fill="rgb(204,204,204)" stroke="none" d="M 10059,30836 C 10018,30836 9976,30829 9935,30815 9771,30761 9597,30717 9420,30684 9204,30641 9062,30430 9104,30214 9147,29998 9359,29856 9574,29898 9782,29940 9986,29994 10180,30055 10390,30125 10506,30349 10439,30560 10385,30727 10227,30836 10059,30836 Z"/>
       </g>
      </g>
      <g class="com.sun.star.drawing.PolyPolygonShape">
       <g id="id15">
        <rect class="BoundingBox" stroke="none" fill="none" x="5464" y="27294" width="7173" height="9462"/>
       </g>
      </g>
      <g class="com.sun.star.drawing.ClosedBezierShape">
       <g id="id16">
        <rect class="BoundingBox" stroke="none" fill="none" x="5465" y="27296" width="7168" height="9459"/>
        <path fill="rgb(204,204,204)" stroke="none" d="M 9121,36753 C 8910,36753 8734,36588 8724,36375 8714,36155 8883,35968 9102,35956 L 9133,35954 C 9296,35944 9457,35922 9610,35892 9828,35845 10038,35980 10083,36196 10131,36410 9994,36621 9779,36669 9585,36711 9382,36738 9180,36750 9168,36750 9154,36750 9143,36753 9134,36753 9127,36753 9121,36753 Z M 7982,36589 C 7938,36589 7895,36581 7851,36567 7643,36493 7445,36400 7254,36285 7067,36172 7005,35929 7118,35740 7231,35551 7474,35490 7665,35601 7808,35689 7960,35760 8116,35816 8291,35878 8401,36061 8376,36243 8351,36437 8180,36589 7982,36589 Z M 10762,36241 C 10578,36241 10416,36111 10374,35934 10335,35774 10404,35598 10544,35508 10686,35416 10818,35312 10941,35196 11100,35044 11353,35051 11505,35211 11656,35370 11649,35623 11490,35775 11331,35922 11159,36061 10977,36176 10909,36221 10835,36241 10762,36241 Z M 6599,35574 C 6481,35574 6363,35522 6285,35421 6155,35252 6037,35068 5937,34875 5834,34683 5907,34443 6101,34340 6295,34235 6537,34309 6640,34504 6721,34656 6814,34801 6915,34934 7113,35188 6927,35574 6599,35574 Z M 11896,34953 C 11605,34953 11413,34639 11539,34379 11615,34227 11676,34066 11725,33902 11786,33693 12010,33573 12218,33634 12429,33698 12551,33917 12488,34130 12428,34335 12350,34537 12252,34730 12183,34872 12044,34953 11896,34953 Z M 5919,33995 C 5728,33995 5559,33858 5527,33664 5491,33458 5471,33244 5466,33031 5459,32810 5635,32629 5854,32622 6076,32619 6256,32791 6261,33014 6265,33186 6283,33362 6310,33531 6353,33771 6163,33995 5919,33995 Z M 12232,33269 C 12027,33269 11853,33110 11836,32901 11821,32732 11793,32570 11745,32421 11681,32210 11796,31987 12007,31921 12216,31855 12441,31974 12505,32183 12571,32391 12613,32612 12630,32840 12647,33068 12461,33269 12232,33269 Z M 5996,32272 C 5738,32272 5544,32019 5611,31769 5660,31588 5734,31381 5822,31171 5910,30969 6143,30876 6346,30960 6548,31048 6641,31281 6555,31484 6461,31707 6408,31876 6380,31979 6332,32156 6172,32272 5996,32272 Z M 11534,31717 C 11431,31717 11326,31676 11247,31594 11136,31479 11007,31369 10865,31269 10686,31143 10644,30893 10767,30714 10896,30535 11144,30492 11323,30617 11507,30746 11674,30889 11821,31043 11973,31202 11970,31453 11811,31605 11733,31678 11634,31717 11534,31717 Z M 6741,30707 C 6429,30707 6239,30349 6408,30090 6520,29921 6640,29754 6765,29592 6900,29422 7151,29389 7322,29525 7498,29660 7526,29910 7391,30084 7280,30227 7172,30376 7072,30528 6996,30644 6869,30707 6741,30707 Z M 7861,29383 C 7506,29383 7330,28933 7589,28694 7737,28555 7895,28420 8050,28297 8224,28158 8476,28189 8612,28359 8747,28533 8720,28781 8546,28918 8405,29031 8266,29151 8131,29276 8055,29347 7957,29383 7861,29383 Z M 9261,28359 C 9087,28359 8928,28241 8878,28076 8825,27902 8903,27704 9065,27614 9239,27515 9421,27422 9605,27336 9803,27240 10041,27327 10134,27527 10227,27726 10141,27962 9943,28055 9778,28133 9614,28217 9455,28309 9394,28342 9327,28359 9261,28359 Z"/>
       </g>
      </g>
      <g class="com.sun.star.drawing.PolyPolygonShape">
       <g id="id17">
        <rect class="BoundingBox" stroke="none" fill="none" x="10458" y="26798" width="1091" height="887"/>
       </g>
      </g>
      <g class="com.sun.star.drawing.ClosedBezierShape">
       <g id="id18">
        <rect class="BoundingBox" stroke="none" fill="none" x="10458" y="26800" width="1088" height="884"/>
        <path fill="rgb(204,204,204)" stroke="none" d="M 10858,27682 C 10657,27682 10486,27527 10461,27331 10437,27140 10557,26956 10741,26898 10839,26870 10941,26839 11042,26814 11255,26757 11473,26882 11530,27096 11588,27309 11461,27528 11246,27584 11155,27609 11062,27637 10975,27662 10934,27675 10895,27682 10858,27682 Z"/>
       </g>
      </g>
      <g class="com.sun.star.drawing.PolyPolygonShape">
       <g id="id19">
        <rect class="BoundingBox" stroke="none" fill="none" x="2256" y="39264" width="935" height="1072"/>
       </g>
      </g>
      <g class="com.sun.star.drawing.ClosedBezierShape">
       <g id="id20">
        <rect class="BoundingBox" stroke="none" fill="none" x="2258" y="39265" width="931" height="1070"/>
        <path fill="rgb(204,204,204)" stroke="none" d="M 2789,40334 C 2645,40334 2505,40254 2436,40117 2387,40024 2340,39930 2296,39834 2203,39633 2289,39396 2488,39303 2689,39210 2926,39297 3019,39497 3059,39582 3101,39666 3144,39751 3279,40011 3085,40334 2789,40334 Z"/>
       </g>
      </g>
      <g class="com.sun.star.drawing.PolyPolygonShape">
       <g id="id21">
        <rect class="BoundingBox" stroke="none" fill="none" x="1736" y="37674" width="934" height="1349"/>
       </g>
      </g>
      <g class="com.sun.star.drawing.ClosedBezierShape">
       <g id="id22">
        <rect class="BoundingBox" stroke="none" fill="none" x="1736" y="37676" width="930" height="1344"/>
        <path fill="rgb(204,204,204)" stroke="none" d="M 2268,39018 C 2094,39018 1933,38905 1883,38730 1830,38539 1783,38344 1744,38152 1702,37936 1842,37726 2060,37684 2276,37642 2486,37784 2528,38000 2562,38170 2602,38343 2649,38512 2722,38763 2528,39018 2268,39018 Z"/>
       </g>
      </g>
      <g class="com.sun.star.drawing.PolyPolygonShape">
       <g id="id23">
        <rect class="BoundingBox" stroke="none" fill="none" x="1615" y="31542" width="2878" height="5829"/>
       </g>
      </g>
      <g class="com.sun.star.drawing.ClosedBezierShape">
       <g id="id24">
        <rect class="BoundingBox" stroke="none" fill="none" x="1615" y="31544" width="2874" height="5822"/>
        <path fill="rgb(204,204,204)" stroke="none" d="M 2014,37364 C 1799,37364 1622,37192 1617,36974 1615,36925 1615,36875 1615,36826 1615,36679 1620,36528 1630,36383 1642,36164 1833,35998 2052,36012 2272,36025 2439,36214 2424,36434 2416,36564 2412,36696 2412,36826 2412,36868 2412,36913 2414,36957 2417,37177 2242,37361 2022,37364 2020,37364 2019,37364 2014,37364 Z M 2191,35701 C 1938,35701 1747,35459 1802,35213 1848,35023 1902,34831 1963,34642 2029,34434 2255,34319 2465,34387 2674,34453 2787,34679 2720,34887 2667,35054 2618,35226 2578,35395 2535,35577 2372,35701 2191,35701 Z M 2769,34132 C 2475,34132 2280,33813 2414,33551 2502,33377 2600,33203 2703,33037 2818,32850 3064,32791 3250,32907 3437,33022 3496,33265 3382,33453 3290,33603 3204,33759 3123,33914 3054,34051 2912,34132 2769,34132 Z M 3704,32743 C 3368,32743 3184,32335 3404,32083 3500,31973 3598,31867 3702,31764 3740,31727 3777,31690 3814,31654 3974,31502 4226,31509 4378,31668 4530,31825 4523,32078 4365,32232 4331,32262 4297,32294 4263,32328 4175,32418 4089,32512 4005,32607 3924,32698 3814,32743 3704,32743 Z"/>
       </g>
      </g>
      <g class="com.sun.star.drawing.PolyPolygonShape">
       <g id="id25">
        <rect class="BoundingBox" stroke="none" fill="none" x="4560" y="30686" width="1058" height="961"/>
       </g>
      </g>
      <g class="com.sun.star.drawing.ClosedBezierShape">
       <g id="id26">
        <rect class="BoundingBox" stroke="none" fill="none" x="4562" y="30687" width="1053" height="958"/>
        <path fill="rgb(204,204,204)" stroke="none" d="M 4962,31644 C 4834,31644 4705,31581 4628,31465 4508,31282 4557,31036 4739,30913 4829,30853 4918,30796 5008,30744 5199,30632 5443,30693 5557,30880 5670,31070 5607,31316 5418,31429 5339,31475 5258,31526 5182,31580 5114,31624 5038,31644 4962,31644 Z"/>
       </g>
      </g>
     </g>
    </g>
   </g>
  </g>
 </g>
</svg>