<svg width="420" height="420" xmlns="http://www.w3.org/2000/svg" preserveAspectRatio="xMidYMid">
 <defs>
  <clipPath clipPathUnits="userSpaceOnUse" id="presentation_clip_path">
   <rect id="svg_1" height="46406" width="32813" y="-30893.95143" x="-1518.73753"/>
  </clipPath>
  <clipPath clipPathUnits="userSpaceOnUse" id="presentation_clip_path_shrink">
   <rect id="svg_2" height="46314" width="32748" y="46" x="32"/>
  </clipPath>
 </defs>
 <defs>
  <g id="svg_3"/>
 </defs>
 <defs>
  <g transform="scale(0.00048828125,-0.00048828125)" id="bullet-char-template-57356">
   <path id="svg_4" d="m580,1141l583,-570l-583,-571l-584,571l584,570z"/>
  </g>
  <g transform="scale(0.00048828125,-0.00048828125)" id="bullet-char-template-57354">
   <path id="svg_5" d="m8,1128l1129,0l0,-1128l-1129,0l0,1128z"/>
  </g>
  <g transform="scale(0.00048828125,-0.00048828125)" id="bullet-char-template-10146">
   <path id="svg_6" d="m174,0l428,739l-428,742l1282,-742l-1282,-739zm1184,739l-1049,607l350,-607l699,0z"/>
  </g>
  <g transform="scale(0.00048828125,-0.00048828125)" id="bullet-char-template-10132">
   <path id="svg_7" d="m2015,739l-739,-739l-559,0l543,543l-1086,0l0,393l1086,0l-543,545l557,0l741,-742z"/>
  </g>
  <g transform="scale(0.00048828125,-0.00048828125)" id="bullet-char-template-10007">
   <path id="svg_8" d="m0,-2c-7,16 -16,29 -25,39l381,530c-94,256 -141,385 -141,387c0,25 13,38 40,38c9,0 21,-2 34,-5c21,4 42,12 65,25l27,-13l111,-251l280,301l64,-25l24,25c21,-10 41,-24 62,-43c-36,-69 -87,-143 -152,-222c-1,-1 -60,-68 -176,-200l180,-361c0,-27 -21,-55 -63,-84l16,-20c-10,-29 -28,-43 -55,-43c-31,0 -102,102 -215,305l-293,-457c-22,-34 -53,-51 -92,-51c-42,0 -63,17 -64,51c-7,9 -10,24 -10,44c0,9 1,19 2,30z"/>
  </g>
  <g transform="scale(0.00048828125,-0.00048828125)" id="bullet-char-template-10004">
   <path id="svg_9" d="m285,-33c-103,0 -174,63 -211,189c-22,72 -33,177 -33,315c0,78 14,145 41,201c34,71 87,106 158,106c53,0 88,-31 106,-94l23,-176c8,-64 28,-97 59,-98l735,706c11,11 33,17 66,17c42,0 63,-15 63,-46l0,-122c0,-36 -10,-64 -30,-84l-820,-834c-52,-53 -104,-80 -157,-80z"/>
  </g>
  <g transform="scale(0.00048828125,-0.00048828125)" id="bullet-char-template-9679">
   <path id="svg_10" d="m813,0c-181,0 -324,54 -430,161c-107,107 -160,250 -160,431c0,181 53,324 160,431c106,107 249,161 430,161c179,0 323,-54 432,-161c108,-107 162,-251 162,-431c0,-180 -54,-324 -162,-431c-109,-107 -253,-161 -432,-161z"/>
  </g>
  <g transform="scale(0.00048828125,-0.00048828125)" id="bullet-char-template-8226">
   <path id="svg_11" d="m346,457c-73,0 -137,26 -191,78c-54,51 -81,114 -81,188c0,73 27,136 81,188c54,52 118,78 191,78c73,0 134,-26 185,-79c51,-51 77,-114 77,-187c0,-75 -25,-137 -76,-188c-50,-52 -112,-78 -186,-78z"/>
  </g>
  <g transform="scale(0.00048828125,-0.00048828125)" id="bullet-char-template-8211">
   <path id="svg_12" d="m-4,459l1139,0l0,147l-1139,0l0,-147z"/>
  </g>
  <g transform="scale(0.00048828125,-0.00048828125)" id="bullet-char-template-61548">
   <path id="svg_13" d="m173,740c0,163 58,303 173,419c116,115 255,173 419,173c163,0 302,-58 418,-173c116,-116 174,-256 174,-419c0,-163 -58,-303 -174,-418c-116,-116 -255,-174 -418,-174c-164,0 -303,58 -419,174c-115,115 -173,255 -173,418z"/>
  </g>
 </defs>

 <g class="currentLayer">
  <title>Layer 1</title>
  <g id="svg_14">
   <g class="Master_Slide" id="id2">
    <g class="Background" id="bg-id2"/>
    <g class="BackgroundObjects" id="bo-id2"/>
   </g>
  </g>
  <g id="svg_18" class="com.sun.star.drawing.PolyPolygonShape">
   <g id="id3">
    <rect id="svg_19" height="104.84952" width="148.20923" y="135.80941" x="175.5283" fill="none" class="BoundingBox"/>
   </g>
  </g>
  <rect id="svg_21" height="104.82229" width="148.16384" y="135.80941" x="175.5283" fill="none" class="BoundingBox"/>
  <path id="svg_22" d="m186.38639,240.61353l-10.849,-79.52001l50.59539,-18.05753l97.55027,-7.22655l-101.17264,54.21778l-36.12402,50.58631z" fill="#096829"/>
  <g id="svg_23" class="com.sun.star.drawing.PolyPolygonShape">
   <g id="id5">
    <rect id="svg_24" height="104.84952" width="137.35116" y="135.80941" x="186.38639" fill="none" class="BoundingBox"/>
   </g>
  </g>
  <rect id="svg_26" height="104.82229" width="137.34207" y="135.80941" x="186.38639" fill="none" class="BoundingBox"/>
  <path id="svg_27" d="m193.61301,179.17815l-7.22662,61.43537l137.32392,-104.80409l-130.0973,43.36872z" fill="#10b748"/>
  <g id="svg_28" class="com.sun.star.drawing.PolyPolygonShape">
   <g id="id7">
    <rect id="svg_29" height="82.05299" width="130.14269" y="135.80941" x="193.59485" fill="none" class="BoundingBox"/>
   </g>
  </g>
  <rect id="svg_31" height="82.01667" width="130.12453" y="135.80941" x="193.60393" fill="none" class="BoundingBox"/>
  <path id="svg_32" d="m193.61301,179.17815l69.41547,38.17578c1.62508,0.90795 3.65872,0.4267 4.70275,-1.10758l55.97907,-80.43692l-130.0973,43.36872z" fill="#0ea340"/>
  <g id="svg_33" class="com.sun.star.drawing.PolyPolygonShape">
   <g id="id9">
    <rect id="svg_34" height="25.34764" width="184.44219" y="135.80941" x="139.28626" fill="none" class="BoundingBox"/>
   </g>
  </g>
  <rect id="svg_36" height="25.32948" width="184.44219" y="135.80941" x="139.29535" fill="none" class="BoundingBox"/>
  <path id="svg_37" d="m175.57371,161.12982l-34.36276,-18.51143c-3.31371,-1.77942 -2.0427,-6.80896 1.71587,-6.80896l180.79257,0l-148.14568,25.32039z" fill="#0ea340"/>
  <g id="svg_38" class="com.sun.star.drawing.PolyPolygonShape">
   <g id="id11">
    <rect id="svg_39" height="7.40819" width="10.01377" y="271.3539" x="150.99775" fill="none" class="BoundingBox"/>
   </g>
  </g>
  <g id="svg_40" class="com.sun.star.drawing.ClosedBezierShape">
   <g id="id12">
    <rect id="svg_41" height="7.38096" width="9.97745" y="271.38115" x="151.0159" fill="none" class="BoundingBox"/>
    <path id="svg_42" d="m154.6383,278.74395c-1.89746,0 -3.47713,-1.47981 -3.61332,-3.39545c-0.12709,-1.99729 1.39813,-3.73137 3.38635,-3.8403c0.95326,-0.07263 1.93375,-0.11797 2.89609,-0.11797c0.01815,0 0.03632,0 0.06355,0c1.96099,0 3.58608,1.57972 3.60423,3.55876c0.02724,2.00641 -1.56153,3.64971 -3.57699,3.6769c-0.82616,0.01815 -1.67048,0.06359 -2.51478,0.09077c-0.09079,0 -0.16343,0.02728 -0.24513,0.02728z" fill="rgb(204,204,204)"/>
   </g>
  </g>
  <g id="svg_43" class="com.sun.star.drawing.PolyPolygonShape">
   <g id="id13">
    <rect id="svg_44" height="8.63381" width="12.39238" y="272.26175" x="164.17089" fill="none" class="BoundingBox"/>
   </g>
  </g>
  <g id="svg_45" class="com.sun.star.drawing.ClosedBezierShape">
   <g id="id14">
    <rect id="svg_46" height="8.5975" width="12.37422" y="272.27083" x="164.17997" fill="none" class="BoundingBox"/>
    <path id="svg_47" d="m172.92272,280.85922c-0.37222,0 -0.75353,-0.0635 -1.12576,-0.19059c-1.48889,-0.49021 -3.06858,-0.88972 -4.67549,-1.18932c-1.961,-0.39039 -3.25018,-2.30594 -2.86887,-4.26692c0.39039,-1.96106 2.31507,-3.2502 4.26698,-2.86893c1.88836,0.38135 3.7404,0.87156 5.50167,1.42543c1.90652,0.63545 2.95963,2.66905 2.35137,4.58469c-0.49025,1.51612 -1.92468,2.50565 -3.44991,2.50565z" fill="rgb(204,204,204)"/>
   </g>
  </g>
  <g id="svg_48" class="com.sun.star.drawing.PolyPolygonShape">
   <g id="id15">
    <rect id="svg_49" height="85.90234" width="65.12128" y="248.70264" x="131.20625" fill="none" class="BoundingBox"/>
   </g>
  </g>
  <g id="svg_50" class="com.sun.star.drawing.ClosedBezierShape">
   <g id="id16">
    <rect id="svg_51" height="85.87511" width="65.07588" y="248.7208" x="131.21533" fill="none" class="BoundingBox"/>
    <path id="svg_52" d="m164.40694,334.57776c-1.91561,0 -3.51345,-1.49797 -3.60423,-3.43176c-0.09079,-1.99729 1.44351,-3.69505 3.43173,-3.80391l0.28145,-0.01824c1.47981,-0.09078 2.94148,-0.29049 4.33052,-0.56291c1.97916,-0.42662 3.88567,0.79902 4.29421,2.75999c0.43578,1.94283 -0.808,3.85846 -2.75991,4.29411c-1.76126,0.38135 -3.60423,0.6265 -5.43812,0.73543c-0.10895,0 -0.23605,0 -0.33591,0.02728c-0.0817,0 -0.14526,0 -0.19973,0zm-10.34062,-1.48894c-0.39945,0 -0.78982,-0.07262 -1.18929,-0.19971c-1.88837,-0.67184 -3.68594,-1.51613 -5.41996,-2.5602c-1.69772,-1.02584 -2.2606,-3.23196 -1.2347,-4.9478c1.02588,-1.71592 3.232,-2.26971 4.96604,-1.26203c1.29823,0.79893 2.67819,1.4435 4.09447,1.95194c1.58877,0.56291 2.58742,2.22428 2.36045,3.87653c-0.22696,1.76135 -1.77941,3.14127 -3.577,3.14127zm25.2387,-3.15942c-1.67046,0 -3.14122,-1.18021 -3.52251,-2.7871c-0.35406,-1.45254 0.27236,-3.05041 1.54337,-3.8675c1.28917,-0.83524 2.48756,-1.77942 3.60424,-2.83254c1.44351,-1.37991 3.7404,-1.31641 5.12037,0.13613c1.37088,1.4435 1.30732,3.74048 -0.13619,5.1204c-1.4435,1.33457 -3.00503,2.59651 -4.65734,3.64059c-0.61736,0.40846 -1.28918,0.59002 -1.95193,0.59002zm-37.79448,-6.05546c-1.07129,0 -2.14257,-0.47205 -2.85071,-1.38896c-1.18021,-1.53428 -2.25151,-3.20485 -3.15937,-4.957c-0.9351,-1.74311 -0.27236,-3.92196 1.4889,-4.8571c1.76126,-0.95322 3.95831,-0.28146 4.8934,1.48893c0.73537,1.38 1.57968,2.69633 2.49663,3.90381c1.79758,2.30602 0.10895,5.81032 -2.86885,5.81032zm48.08968,-5.6378c-2.64188,0 -4.38499,-2.85069 -3.24108,-5.21118c0.68999,-1.38 1.24379,-2.84158 1.68865,-4.3305c0.55379,-1.89748 2.58741,-2.98682 4.47578,-2.43311c1.91559,0.58106 3.02318,2.56923 2.45124,4.50302c-0.54473,1.86117 -1.25287,3.69498 -2.14259,5.44721c-0.62642,1.28922 -1.88836,2.02456 -3.23201,2.02456zm-54.26319,-8.69732c-1.73401,0 -3.26831,-1.24379 -3.55884,-3.00506c-0.32683,-1.87028 -0.5084,-3.81302 -0.5538,-5.74681c-0.06355,-2.00641 1.53429,-3.64962 3.52254,-3.71321c2.01546,-0.02719 3.64962,1.53428 3.69501,3.55885c0.03631,1.56156 0.19972,3.15942 0.44485,4.6937c0.39039,2.17885 -1.33456,4.21254 -3.54976,4.21254zm57.31363,-6.59118c-1.86113,0 -3.44083,-1.4435 -3.59516,-3.3409c-0.13618,-1.53436 -0.39039,-3.00505 -0.82617,-4.35778c-0.58103,-1.91563 0.46302,-3.94011 2.37861,-4.53934c1.89746,-0.59922 3.94016,0.48117 4.52118,2.37865c0.59919,1.88828 0.9805,3.89469 1.13484,5.9646c0.15434,2.06999 -1.53429,3.89477 -3.61331,3.89477zm-56.61457,-9.0514c-2.34229,0 -4.10355,-2.2969 -3.49528,-4.56653c0.44484,-1.6433 1.11666,-3.52262 1.9156,-5.42913c0.79894,-1.83381 2.91426,-2.67817 4.75721,-1.91555c1.83389,0.79893 2.67821,2.9142 1.89745,4.7572c-0.85339,2.02457 -1.33457,3.55885 -1.58877,4.49399c-0.43577,1.6069 -1.88836,2.66001 -3.48621,2.66001zm50.27766,-5.03866c-0.9351,0 -1.88837,-0.37223 -2.60557,-1.1167c-1.00775,-1.04399 -2.17889,-2.04272 -3.46805,-2.95059c-1.62509,-1.14389 -2.00639,-3.41352 -0.88972,-5.03866c1.17116,-1.62506 3.42266,-2.01545 5.04774,-0.88059c1.67049,1.17117 3.18661,2.46934 4.52118,3.86749c1.37997,1.4435 1.35272,3.72225 -0.09079,5.10225c-0.70814,0.66272 -1.60693,1.0168 -2.51479,1.0168zm-43.51406,-9.16945c-2.83254,0 -4.55749,-3.2502 -3.02319,-5.60157c1.01681,-1.53428 2.10625,-3.05041 3.24108,-4.5211c1.22562,-1.5434 3.50437,-1.84301 5.05683,-0.60834c1.59785,1.22563 1.85206,3.49526 0.62642,5.07497c-1.00772,1.29826 -1.98822,2.65098 -2.89609,4.03098c-0.68998,1.05311 -1.84298,1.62506 -3.00505,1.62506zm10.16812,-12.02015c-3.22293,0 -4.82078,-4.08545 -2.4694,-6.25525c1.34363,-1.26195 2.77808,-2.48758 4.18527,-3.6042c1.57968,-1.26195 3.86751,-0.98049 5.10221,0.56283c1.22562,1.57971 0.98049,3.83126 -0.5992,5.07505c-1.28009,1.02584 -2.54202,2.11526 -3.76763,3.25012c-0.68999,0.64457 -1.57969,0.97145 -2.45124,0.97145zm12.71013,-9.29662c-1.5797,0 -3.0232,-1.07127 -3.47714,-2.56924c-0.48117,-1.57971 0.22697,-3.37729 1.69771,-4.19429c1.57969,-0.89883 3.23202,-1.74312 4.90249,-2.52389c1.79758,-0.87156 3.95829,-0.08174 4.80261,1.73399c0.84432,1.8067 0.06355,3.94924 -1.73402,4.79352c-1.49799,0.70815 -2.98689,1.47078 -4.4304,2.30602c-0.55379,0.29953 -1.16207,0.4539 -1.76125,0.4539z" fill="rgb(204,204,204)"/>
   </g>
  </g>
  <g id="svg_53" class="com.sun.star.drawing.PolyPolygonShape">
   <g id="id17">
    <rect id="svg_54" height="8.05278" width="9.90483" y="244.1996" x="176.54511" fill="none" class="BoundingBox"/>
   </g>
  </g>
  <g id="svg_55" class="com.sun.star.drawing.ClosedBezierShape">
   <g id="id18">
    <rect id="svg_56" height="8.02554" width="9.87759" y="244.21776" x="176.54511" fill="none" class="BoundingBox"/>
    <path id="svg_57" d="m180.17658,252.22513c-1.8248,0 -3.37726,-1.40719 -3.60421,-3.18661c-0.2179,-1.73399 0.87153,-3.40448 2.54201,-3.931c0.88971,-0.25426 1.81574,-0.53572 2.73268,-0.76271c1.93375,-0.5174 3.9129,0.61746 4.43038,2.5602c0.52658,1.93379 -0.62642,3.92205 -2.57834,4.43041c-0.82616,0.22699 -1.67048,0.48125 -2.46031,0.70815c-0.37223,0.11805 -0.7263,0.18156 -1.06222,0.18156z" fill="rgb(204,204,204)"/>
   </g>
  </g>
  <g id="svg_58" class="com.sun.star.drawing.PolyPolygonShape">
   <g id="id19">
    <rect id="svg_59" height="9.73233" width="8.48855" y="357.37426" x="102.08189" fill="none" class="BoundingBox"/>
   </g>
  </g>
  <g id="svg_60" class="com.sun.star.drawing.ClosedBezierShape">
   <g id="id20">
    <rect id="svg_61" height="9.71417" width="8.45224" y="357.38334" x="102.10005" fill="none" class="BoundingBox"/>
    <path id="svg_62" d="m106.92082,367.08846c-1.30732,0 -2.57834,-0.72631 -3.20477,-1.9701c-0.44486,-0.84437 -0.87155,-1.69768 -1.27101,-2.56924c-0.84432,-1.82485 -0.06355,-3.97651 1.7431,-4.82079c1.82481,-0.84428 3.97646,-0.05447 4.82078,1.76127c0.36314,0.77174 0.74445,1.53428 1.13482,2.30594c1.22563,2.36049 -0.53563,5.29292 -3.22292,5.29292z" fill="rgb(204,204,204)"/>
   </g>
  </g>
  <g id="svg_63" class="com.sun.star.drawing.PolyPolygonShape">
   <g id="id21">
    <rect id="svg_64" height="12.24712" width="8.47947" y="342.93919" x="97.36098" fill="none" class="BoundingBox"/>
   </g>
  </g>
  <g id="svg_65" class="com.sun.star.drawing.ClosedBezierShape">
   <g id="id22">
    <rect id="svg_66" height="12.20173" width="8.44316" y="342.95735" x="97.36098" fill="none" class="BoundingBox"/>
    <path id="svg_67" d="m102.19083,355.14086c-1.57968,0 -3.04135,-1.02584 -3.49529,-2.61459c-0.48117,-1.73399 -0.90786,-3.50438 -1.26193,-5.2474c-0.3813,-1.96106 0.88971,-3.86758 2.86886,-4.24885c1.96099,-0.38135 3.86751,0.90778 4.24881,2.86885c0.30867,1.5434 0.67182,3.11399 1.09852,4.64819c0.66274,2.27883 -1.09852,4.5938 -3.45898,4.5938z" fill="rgb(204,204,204)"/>
   </g>
  </g>
  <g id="svg_68" class="com.sun.star.drawing.PolyPolygonShape">
   <g id="id23">
    <rect id="svg_69" height="52.91955" width="26.1284" y="287.26881" x="96.26246" fill="none" class="BoundingBox"/>
   </g>
  </g>
  <g id="svg_70" class="com.sun.star.drawing.ClosedBezierShape">
   <g id="id24">
    <rect id="svg_71" height="52.856" width="26.09209" y="287.28697" x="96.26246" fill="none" class="BoundingBox"/>
    <path id="svg_72" d="m99.88485,340.12477c-1.95191,0 -3.55884,-1.56156 -3.60423,-3.54061c-0.01815,-0.44485 -0.01815,-0.89883 -0.01815,-1.34368c0,-1.33457 0.04539,-2.70545 0.13618,-4.02178c0.10894,-1.98834 1.84297,-3.49534 3.83119,-3.36825c1.99731,0.11805 3.51345,1.83389 3.37726,3.83118c-0.07263,1.1802 -0.10894,2.37864 -0.10894,3.55885c0,0.38127 0,0.78981 0.01815,1.18932c0.02723,1.99729 -1.56153,3.66778 -3.55884,3.69497c-0.01816,0 -0.02724,0 -0.07264,0zm1.60693,-15.09782c-2.2969,0 -4.03093,-2.197 -3.5316,-4.43032c0.41762,-1.72504 0.90787,-3.46807 1.46167,-5.18399c0.59919,-1.88836 2.65097,-2.93235 4.55749,-2.31506c1.89744,0.59922 2.92333,2.65098 2.31506,4.53934c-0.48116,1.51612 -0.92602,3.07768 -1.28917,4.61205c-0.39038,1.65225 -1.8702,2.77798 -3.51344,2.77798zm5.24746,-14.24442c-2.66912,0 -4.43946,-2.89603 -3.22292,-5.27468c0.79892,-1.57971 1.68862,-3.15943 2.62374,-4.66643c1.04404,-1.69777 3.27739,-2.2334 4.96602,-1.1802c1.69771,1.04399 2.23336,3.25011 1.19839,4.95691c-0.83524,1.36184 -1.616,2.77807 -2.35138,4.18534c-0.62642,1.24371 -1.91559,1.97905 -3.21385,1.97905zm8.48857,-12.61024c-3.05044,0 -4.72091,-3.70409 -2.72361,-5.99196c0.87156,-0.99865 1.76127,-1.9609 2.70545,-2.89604c0.34499,-0.33601 0.68091,-0.67184 1.01681,-0.99865c1.45259,-1.38 3.74041,-1.31641 5.12037,0.12709c1.37996,1.42534 1.31641,3.72225 -0.11802,5.12032c-0.30867,0.27242 -0.61734,0.56291 -0.92602,0.87156c-0.79892,0.81709 -1.57969,1.67049 -2.3423,2.53292c-0.73537,0.82621 -1.73402,1.23475 -2.73267,1.23475z" fill="rgb(204,204,204)"/>
   </g>
  </g>
  <g id="svg_73" class="com.sun.star.drawing.PolyPolygonShape">
   <g id="id25">
    <rect id="svg_74" height="8.7246" width="9.60523" y="279.49745" x="122.99914" fill="none" class="BoundingBox"/>
   </g>
  </g>
  <g id="svg_75" class="com.sun.star.drawing.ClosedBezierShape">
   <g id="id26">
    <rect id="svg_76" height="8.69736" width="9.55984" y="279.50653" x="123.01729" fill="none" class="BoundingBox"/>
    <path id="svg_77" d="m126.64877,288.19478c-1.16207,0 -2.33322,-0.57194 -3.03228,-1.62506c-1.08945,-1.66137 -0.64459,-3.89469 1.00773,-5.01138c0.81707,-0.54475 1.62508,-1.06223 2.44215,-1.53428c1.73402,-1.01688 3.94923,-0.46301 4.98419,1.23467c1.02589,1.72496 0.45392,3.95827 -1.26194,4.98419c-0.71721,0.41766 -1.45259,0.88059 -2.14256,1.37088c-0.61736,0.39943 -1.30732,0.58098 -1.9973,0.58098z" fill="rgb(204,204,204)"/>
   </g>
  </g>
 </g>
 <g>
  <title>Layer 2</title>
  <rect fill="none" y="0" x="0" height="100%" width="100%" id="backgroundrect"/>
 </g>
 <g>
  <title>background</title>
  <rect fill="none" id="canvas_background" height="422" width="422" y="-1" x="-1"/>
 </g>
</svg>