<svg version="1.2" width="262.5mm" height="371.25mm" viewBox="0 0 26250 37125" preserveAspectRatio="xMidYMid" fill-rule="evenodd" stroke-width="28.222" stroke-linejoin="round" xmlns="http://www.w3.org/2000/svg" xmlns:ooo="http://xml.openoffice.org/svg/export" xmlns:xlink="http://www.w3.org/1999/xlink" xmlns:presentation="http://sun.com/xmlns/staroffice/presentation" xmlns:smil="http://www.w3.org/2001/SMIL20/" xmlns:anim="urn:oasis:names:tc:opendocument:xmlns:animation:1.0" xml:space="preserve">
 <defs class="ClipPathGroup">
  <clipPath id="presentation_clip_path" clipPathUnits="userSpaceOnUse">
   <rect x="0" y="0" width="26250" height="37125"/>
  </clipPath>
  <clipPath id="presentation_clip_path_shrink" clipPathUnits="userSpaceOnUse">
   <rect x="26" y="37" width="26198" height="37051"/>
  </clipPath>
 </defs>
 <defs class="TextShapeIndex">
  <g ooo:slide="id1" ooo:id-list="id3 id4 id5 id6 id7 id8 id9 id10 id11 id12 id13 id14"/>
 </defs>
 <defs class="EmbeddedBulletChars">
  <g id="bullet-char-template-57356" transform="scale(0.00048828125,-0.00048828125)">
   <path d="M 580,1141 L 1163,571 580,0 -4,571 580,1141 Z"/>
  </g>
  <g id="bullet-char-template-57354" transform="scale(0.00048828125,-0.00048828125)">
   <path d="M 8,1128 L 1137,1128 1137,0 8,0 8,1128 Z"/>
  </g>
  <g id="bullet-char-template-10146" transform="scale(0.00048828125,-0.00048828125)">
   <path d="M 174,0 L 602,739 174,1481 1456,739 174,0 Z M 1358,739 L 309,1346 659,739 1358,739 Z"/>
  </g>
  <g id="bullet-char-template-10132" transform="scale(0.00048828125,-0.00048828125)">
   <path d="M 2015,739 L 1276,0 717,0 1260,543 174,543 174,936 1260,936 717,1481 1274,1481 2015,739 Z"/>
  </g>
  <g id="bullet-char-template-10007" transform="scale(0.00048828125,-0.00048828125)">
   <path d="M 0,-2 C -7,14 -16,27 -25,37 L 356,567 C 262,823 215,952 215,954 215,979 228,992 255,992 264,992 276,990 289,987 310,991 331,999 354,1012 L 381,999 492,748 772,1049 836,1024 860,1049 C 881,1039 901,1025 922,1006 886,937 835,863 770,784 769,783 710,716 594,584 L 774,223 C 774,196 753,168 711,139 L 727,119 C 717,90 699,76 672,76 641,76 570,178 457,381 L 164,-76 C 142,-110 111,-127 72,-127 30,-127 9,-110 8,-76 1,-67 -2,-52 -2,-32 -2,-23 -1,-13 0,-2 Z"/>
  </g>
  <g id="bullet-char-template-10004" transform="scale(0.00048828125,-0.00048828125)">
   <path d="M 285,-33 C 182,-33 111,30 74,156 52,228 41,333 41,471 41,549 55,616 82,672 116,743 169,778 240,778 293,778 328,747 346,684 L 369,508 C 377,444 397,411 428,410 L 1163,1116 C 1174,1127 1196,1133 1229,1133 1271,1133 1292,1118 1292,1087 L 1292,965 C 1292,929 1282,901 1262,881 L 442,47 C 390,-6 338,-33 285,-33 Z"/>
  </g>
  <g id="bullet-char-template-9679" transform="scale(0.00048828125,-0.00048828125)">
   <path d="M 813,0 C 632,0 489,54 383,161 276,268 223,411 223,592 223,773 276,916 383,1023 489,1130 632,1184 813,1184 992,1184 1136,1130 1245,1023 1353,916 1407,772 1407,592 1407,412 1353,268 1245,161 1136,54 992,0 813,0 Z"/>
  </g>
  <g id="bullet-char-template-8226" transform="scale(0.00048828125,-0.00048828125)">
   <path d="M 346,457 C 273,457 209,483 155,535 101,586 74,649 74,723 74,796 101,859 155,911 209,963 273,989 346,989 419,989 480,963 531,910 582,859 608,796 608,723 608,648 583,586 532,535 482,483 420,457 346,457 Z"/>
  </g>
  <g id="bullet-char-template-8211" transform="scale(0.00048828125,-0.00048828125)">
   <path d="M -4,459 L 1135,459 1135,606 -4,606 -4,459 Z"/>
  </g>
  <g id="bullet-char-template-61548" transform="scale(0.00048828125,-0.00048828125)">
   <path d="M 173,740 C 173,903 231,1043 346,1159 462,1274 601,1332 765,1332 928,1332 1067,1274 1183,1159 1299,1043 1357,903 1357,740 1357,577 1299,437 1183,322 1067,206 928,148 765,148 601,148 462,206 346,322 231,437 173,577 173,740 Z"/>
  </g>
 </defs>
 <defs class="TextEmbeddedBitmaps"/>
 <g>
  <g id="id2" class="Master_Slide">
   <g id="bg-id2" class="Background"/>
   <g id="bo-id2" class="BackgroundObjects"/>
  </g>
 </g>
 <g class="SlideGroup">
  <g>
   <g id="container-id1">
    <g id="id1" class="Slide" clip-path="url(#presentation_clip_path)">
     <g class="Page">
      <g class="com.sun.star.drawing.PolyPolygonShape">
       <g id="id3">
        <rect class="BoundingBox" stroke="none" fill="none" x="11121" y="13081" width="7731" height="5469"/>
        <path fill="rgb(243,123,112)" stroke="none" d="M 11687,18548 L 11121,14400 13761,13458 18850,13081 13572,15909 11687,18548 Z"/>
       </g>
      </g>
      <g class="com.sun.star.drawing.PolyPolygonShape">
       <g id="id4">
        <rect class="BoundingBox" stroke="none" fill="none" x="11687" y="13081" width="7165" height="5469"/>
        <path fill="rgb(248,170,151)" stroke="none" d="M 12064,15343 L 11687,18548 18851,13081 12064,15343 Z"/>
       </g>
      </g>
      <g class="com.sun.star.drawing.ClosedBezierShape">
       <g id="id5">
        <rect class="BoundingBox" stroke="none" fill="none" x="12063" y="13081" width="6789" height="4279"/>
        <path fill="rgb(246,142,118)" stroke="none" d="M 12064,15343 L 15685,17335 C 15770,17382 15876,17357 15931,17277 L 18851,13081 12064,15343 Z"/>
       </g>
      </g>
      <g class="com.sun.star.drawing.ClosedBezierShape">
       <g id="id6">
        <rect class="BoundingBox" stroke="none" fill="none" x="9230" y="13081" width="9622" height="1321"/>
        <path fill="rgb(246,142,118)" stroke="none" d="M 11122,14401 L 9330,13436 C 9157,13343 9223,13081 9419,13081 L 18851,13081 11122,14401 Z"/>
       </g>
      </g>
      <g class="com.sun.star.drawing.ClosedBezierShape">
       <g id="id7">
        <rect class="BoundingBox" stroke="none" fill="none" x="9841" y="20153" width="521" height="385"/>
        <path fill="rgb(204,204,204)" stroke="none" d="M 10030,20537 C 9931,20537 9849,20460 9842,20360 9835,20256 9914,20166 10018,20160 10068,20156 10119,20154 10169,20154 10170,20154 10171,20154 10172,20154 10275,20154 10359,20236 10360,20339 10362,20444 10279,20529 10174,20531 10131,20532 10087,20534 10043,20536 10038,20536 10034,20537 10030,20537 Z"/>
       </g>
      </g>
      <g class="com.sun.star.drawing.ClosedBezierShape">
       <g id="id8">
        <rect class="BoundingBox" stroke="none" fill="none" x="10528" y="20200" width="645" height="449"/>
        <path fill="rgb(204,204,204)" stroke="none" d="M 10983,20647 C 10964,20647 10944,20644 10925,20637 10847,20612 10765,20591 10681,20575 10579,20555 10512,20455 10532,20353 10552,20251 10652,20184 10754,20204 10852,20224 10949,20249 11041,20278 11140,20311 11195,20417 11163,20517 11137,20596 11063,20647 10983,20647 Z"/>
       </g>
      </g>
      <g class="com.sun.star.drawing.ClosedBezierShape">
       <g id="id9">
        <rect class="BoundingBox" stroke="none" fill="none" x="8808" y="18971" width="3396" height="4480"/>
        <path fill="rgb(204,204,204)" stroke="none" d="M 10540,23450 C 10440,23450 10357,23372 10352,23271 10347,23167 10427,23078 10531,23073 L 10545,23072 C 10623,23067 10699,23057 10772,23042 10875,23020 10974,23084 10996,23186 11018,23288 10953,23388 10852,23410 10760,23430 10664,23443 10568,23449 10562,23449 10556,23449 10550,23450 10546,23450 10543,23450 10540,23450 Z M 10001,23373 C 9980,23373 9959,23369 9938,23362 9840,23327 9746,23283 9656,23229 9567,23175 9538,23060 9591,22970 9645,22881 9760,22852 9850,22905 9918,22946 9990,22980 10064,23006 10147,23036 10199,23122 10187,23209 10175,23301 10094,23373 10001,23373 Z M 11317,23208 C 11230,23208 11153,23146 11133,23062 11115,22986 11148,22903 11214,22861 11281,22817 11344,22768 11402,22713 11477,22641 11597,22644 11669,22720 11740,22795 11737,22915 11662,22987 11587,23057 11505,23122 11419,23177 11387,23198 11352,23208 11317,23208 Z M 9346,22892 C 9290,22892 9234,22867 9197,22819 9135,22739 9079,22652 9032,22561 8983,22470 9018,22356 9110,22307 9202,22258 9316,22293 9365,22385 9403,22457 9447,22526 9495,22589 9589,22709 9501,22892 9346,22892 Z M 11854,22598 C 11716,22598 11625,22449 11685,22326 11721,22254 11750,22178 11773,22100 11802,22001 11908,21944 12007,21973 12107,22003 12164,22107 12135,22208 12106,22305 12069,22401 12023,22492 11990,22559 11924,22598 11854,22598 Z M 9023,22144 C 8933,22144 8853,22079 8838,21987 8821,21890 8811,21788 8809,21687 8806,21583 8889,21497 8993,21494 9098,21492 9183,21574 9186,21679 9187,21761 9196,21844 9209,21924 9229,22038 9139,22144 9023,22144 Z M 12013,21800 C 11916,21800 11834,21725 11826,21626 11819,21546 11805,21469 11783,21399 11752,21299 11807,21193 11907,21162 12006,21131 12112,21187 12143,21286 12174,21384 12194,21489 12202,21597 12210,21705 12122,21800 12013,21800 Z M 9060,21328 C 8938,21328 8846,21208 8878,21090 8901,21004 8936,20906 8978,20807 9019,20711 9130,20667 9226,20707 9322,20748 9366,20859 9325,20955 9280,21060 9255,21140 9242,21189 9219,21273 9143,21328 9060,21328 Z M 11683,21065 C 11634,21065 11584,21046 11547,21007 11494,20952 11433,20900 11366,20853 11281,20793 11261,20675 11320,20590 11380,20505 11498,20485 11583,20544 11670,20605 11749,20673 11819,20746 11891,20821 11889,20940 11814,21012 11777,21047 11730,21065 11683,21065 Z M 9413,20587 C 9265,20587 9175,20417 9255,20295 9308,20215 9365,20136 9424,20059 9488,19978 9607,19963 9688,20027 9771,20091 9785,20209 9721,20292 9668,20360 9617,20430 9570,20502 9534,20557 9474,20587 9413,20587 Z M 9943,19960 C 9775,19960 9692,19747 9814,19633 9885,19568 9959,19504 10033,19445 10115,19380 10234,19394 10299,19475 10363,19557 10350,19675 10268,19740 10201,19793 10135,19850 10071,19909 10035,19943 9989,19960 9943,19960 Z M 10606,19475 C 10524,19475 10449,19419 10425,19341 10400,19258 10437,19165 10513,19122 10596,19075 10682,19031 10769,18990 10863,18945 10976,18986 11020,19081 11064,19175 11023,19287 10929,19331 10851,19368 10773,19408 10698,19451 10669,19467 10637,19475 10606,19475 Z"/>
       </g>
      </g>
      <g class="com.sun.star.drawing.ClosedBezierShape">
       <g id="id10">
        <rect class="BoundingBox" stroke="none" fill="none" x="11174" y="18736" width="515" height="418"/>
        <path fill="rgb(204,204,204)" stroke="none" d="M 11363,19153 C 11268,19153 11187,19080 11175,18987 11164,18897 11221,18810 11308,18783 11354,18769 11402,18755 11450,18743 11551,18716 11654,18775 11681,18876 11708,18977 11648,19081 11547,19107 11504,19119 11460,19132 11418,19144 11399,19150 11381,19153 11363,19153 Z"/>
       </g>
      </g>
      <g class="com.sun.star.drawing.ClosedBezierShape">
       <g id="id11">
        <rect class="BoundingBox" stroke="none" fill="none" x="7289" y="24641" width="441" height="506"/>
        <path fill="rgb(204,204,204)" stroke="none" d="M 7540,25146 C 7472,25146 7406,25109 7373,25044 7350,25000 7328,24955 7307,24910 7263,24815 7304,24703 7398,24659 7493,24615 7605,24656 7649,24751 7668,24791 7688,24831 7708,24871 7772,24994 7680,25146 7540,25146 Z"/>
       </g>
      </g>
      <g class="com.sun.star.drawing.ClosedBezierShape">
       <g id="id12">
        <rect class="BoundingBox" stroke="none" fill="none" x="7042" y="23888" width="441" height="637"/>
        <path fill="rgb(204,204,204)" stroke="none" d="M 7293,24523 C 7211,24523 7135,24469 7111,24386 7086,24296 7064,24204 7046,24113 7026,24011 7092,23912 7195,23892 7297,23872 7396,23939 7416,24041 7432,24122 7451,24203 7474,24283 7508,24402 7416,24523 7293,24523 Z"/>
       </g>
      </g>
      <g class="com.sun.star.drawing.ClosedBezierShape">
       <g id="id13">
        <rect class="BoundingBox" stroke="none" fill="none" x="6985" y="20983" width="1362" height="2759"/>
        <path fill="rgb(204,204,204)" stroke="none" d="M 7174,23740 C 7072,23740 6988,23658 6986,23555 6985,23532 6985,23508 6985,23485 6985,23415 6987,23344 6992,23275 6998,23171 7088,23093 7192,23099 7296,23106 7375,23195 7368,23299 7364,23361 7362,23423 7362,23485 7362,23505 7362,23526 7363,23547 7365,23651 7282,23738 7178,23740 7177,23740 7176,23740 7174,23740 Z M 7258,22952 C 7138,22952 7047,22838 7074,22721 7095,22631 7121,22540 7150,22451 7181,22352 7288,22298 7387,22330 7486,22361 7540,22468 7508,22567 7483,22646 7460,22727 7441,22807 7421,22894 7343,22952 7258,22952 Z M 7531,22209 C 7392,22209 7300,22058 7363,21934 7405,21852 7451,21769 7500,21691 7554,21602 7671,21574 7759,21629 7848,21684 7876,21799 7821,21888 7778,21959 7737,22032 7699,22106 7666,22171 7599,22209 7531,22209 Z M 7974,21552 C 7815,21552 7728,21358 7832,21239 7877,21187 7924,21137 7973,21088 7991,21070 8008,21053 8026,21036 8102,20964 8221,20967 8293,21042 8365,21117 8362,21237 8287,21309 8271,21324 8255,21339 8239,21355 8197,21397 8156,21442 8116,21487 8078,21530 8026,21552 7974,21552 Z"/>
       </g>
      </g>
      <g class="com.sun.star.drawing.ClosedBezierShape">
       <g id="id14">
        <rect class="BoundingBox" stroke="none" fill="none" x="8380" y="20578" width="499" height="454"/>
        <path fill="rgb(204,204,204)" stroke="none" d="M 8570,21031 C 8509,21031 8449,21001 8412,20946 8355,20860 8378,20743 8465,20685 8507,20657 8549,20630 8592,20605 8682,20552 8798,20581 8851,20670 8905,20759 8875,20876 8786,20929 8748,20951 8710,20975 8674,21000 8642,21021 8606,21031 8570,21031 Z"/>
       </g>
      </g>
     </g>
    </g>
   </g>
  </g>
 </g>
</svg>
