<svg width="420" height="420" xmlns="http://www.w3.org/2000/svg">
 <!-- Created with Method Draw - http://github.com/duopixel/Method-Draw/ -->

 <g>
  <title>background</title>
  <rect fill="none" id="canvas_background" height="422" width="422" y="-1" x="-1"/>
  <g display="none" id="canvasGrid">
   <rect fill="url(#gridpattern)" stroke-width="0" y="0" x="0" height="100%" width="100%" id="svg_1"/>
  </g>
 </g>
 <g>
  <title>Layer 1</title>
  <path id="svg_7" fill="#0ea340" d="m183.04688,168.98437l-18.35938,0l-54.6875,50.78125l0,11.71875l3.90625,5.85938l-3.90625,5.85938l0,29.29688c0,3.23594 2.62344,5.85938 5.85938,5.85938l67.1875,0c3.23594,0 5.85938,-2.62344 5.85938,-5.85938l0,-97.65625c0,-3.23594 -2.62344,-5.85938 -5.85938,-5.85938l0,-0.00001z"/>
  <path id="svg_8" fill="#7dd5f4" d="m145.04766,168.98437c-8.19023,0 -15.55352,4.55039 -19.21602,11.87617l-15.21289,30.42539c-0.40703,0.81367 -0.61875,1.71055 -0.61875,2.62031l0,5.85938l48.82813,0c3.23594,0 5.85938,-2.62344 5.85938,-5.85938l0,-44.92188l-19.63984,0l-0.00001,0.00001z"/>
  <g fill="#0ea340" transform="matrix(0.390625, 0, 0, 0.390625, 0, 0)" id="svg_10">
   <path id="svg_11" fill="#b3fccb" d="m778.6,612.60001l-295,0c-8.284,0 -15,-6.716 -15,-15l0,-260c0,-8.284 6.716,-15 15,-15l295,0c8.284,0 15,6.716 15,15l0,260c0,8.284 -6.716,15 -15,15z"/>
  </g>
  <path id="svg_14" fill="#0ea340" d="m182.04688,233.4375l0,44.92188l121.09375,0c3.23594,0 5.85938,-2.62344 5.85938,-5.85938l0,-39.0625l-126.95313,0z"/>
  <path id="svg_16" fill="#ffdd54" d="m121.71875,243.20312c3.23594,0 5.85938,-2.62344 5.85938,-5.85938s-2.62344,-5.85938 -5.85938,-5.85938l-11.71875,0l0,11.71875l11.71875,0l0,0.00001z"/>
  <path id="svg_18" fill="#096829" d="m268.98438,293.98437c-11.84648,0 -21.48438,-9.63789 -21.48438,-21.48438s9.63789,-21.48438 21.48438,-21.48438s21.48438,9.63789 21.48438,21.48438s-9.63789,21.48438 -21.48438,21.48438z"/>
  <path id="svg_21" fill="#096829" d="m151.01563,293.98437c-11.84648,0 -21.48438,-9.63789 -21.48438,-21.48438s9.63789,-21.48438 21.48438,-21.48438s21.48438,9.63789 21.48438,21.48438s-9.63789,21.48438 -21.48438,21.48438z"/>
 </g>
</svg>