<svg width="315" height="412" xmlns="http://www.w3.org/2000/svg">
 <!-- Created with Method Draw - http://github.com/duopixel/Method-Draw/ -->

 <g>
  <title>background</title>
  <rect x="-1" y="-1" width="317" height="414" id="canvas_background" fill="none"/>
  <g id="canvasGrid" display="none">
   <rect id="svg_1" width="100%" height="100%" x="0" y="0" stroke-width="0" fill="url(#gridpattern)"/>
  </g>
 </g>
 <g>
  <title>Layer 1</title>
  <g id="svg_2">
   <path d="m130.54688,164.98437l-18.35938,0l-54.6875,50.78125l0,11.71875l3.90625,5.85938l-3.90625,5.85938l0,29.29688c0,3.23594 2.62344,5.85938 5.85938,5.85938l67.1875,0c3.23594,0 5.85938,-2.62344 5.85938,-5.85938l0,-97.65625c0,-3.23594 -2.62344,-5.85938 -5.85938,-5.85938l0,-0.00001z" fill="#0ea340" id="svg_7"/>
   <path d="m92.54766,164.98437c-8.19023,0 -15.55352,4.55039 -19.21602,11.87617l-15.21289,30.42539c-0.40703,0.81367 -0.61875,1.71055 -0.61875,2.62031l0,5.85938l48.82813,0c3.23594,0 5.85938,-2.62344 5.85938,-5.85938l0,-44.92188l-19.63984,0l-0.00001,0.00001z" fill="#7dd5f4" id="svg_8"/>
   <g id="svg_10" transform="matrix(0.390625, 0, 0, 0.390625, 0, 0)">
    <path d="m644.2,602.36001l-295,0c-8.284,0 -15,-6.716 -15,-15l0,-260c0,-8.284 6.716,-15 15,-15l295,0c8.284,0 15,6.716 15,15l0,260c0,8.284 -6.716,15 -15,15z" fill="#f4f4f6" id="svg_11"/>
   </g>
   <path d="m129.54688,229.4375l0,44.92188l121.09375,0c3.23594,0 5.85938,-2.62344 5.85938,-5.85938l0,-39.0625l-126.95313,0z" fill="#096829" id="svg_14"/>
   <path d="m69.21875,239.20312c3.23594,0 5.85938,-2.62344 5.85938,-5.85938s-2.62344,-5.85938 -5.85938,-5.85938l-11.71875,0l0,11.71875l11.71875,0l0,0.00001z" fill="#ffdd54" id="svg_16"/>
   <path d="m216.48438,289.98437c-11.84648,0 -21.48438,-9.63789 -21.48438,-21.48438s9.63789,-21.48438 21.48438,-21.48438s21.48438,9.63789 21.48438,21.48438s-9.63789,21.48438 -21.48438,21.48438z" fill="#0a617d" id="svg_18"/>
   <path d="m98.51563,289.98437c-11.84648,0 -21.48438,-9.63789 -21.48438,-21.48438s9.63789,-21.48438 21.48438,-21.48438s21.48438,9.63789 21.48438,21.48438s-9.63789,21.48438 -21.48438,21.48438z" fill="#0a617d" id="svg_21"/>
  </g>
 </g>
</svg>