<svg xmlns="http://www.w3.org/2000/svg" width="776.66" height="776.66" viewBox="0 0 20549 20549" preserveAspectRatio="xMidYMid" fill-rule="evenodd" stroke-width="28.22" stroke-linejoin="round"><defs><clipPath id="A"><path d="M0 0h20549v20549H0z"/></clipPath></defs><g clip-path="url(#A)"><g fill="#e0e0e2"><path d="M9887 10504a186.5 186.5 0 0 1-153-81L7884 7720c-56-84-33-197 50-254s196-37 255 46l1851 2704c28 41 38 90 30 138-10 48-37 91-78 119-31 20-67 31-105 31zm0 0zm1271 0c-36 0-72-11-103-31-40-28-68-71-78-119-8-48 2-97 30-137l1852-2705c36-55 100-86 166-82 67 5 125 45 154 105 28 60 22 131-16 185l-1854 2705c-34 49-91 79-151 79zm0 0z"/><path d="M10222 10504c-77 0-146-48-173-122l-943-2641c-34-96 16-202 112-236s202 16 236 112l943 2642c34 96-16 202-112 236-20 7-41 9-63 9zm0 0zm614 0c-21 0-42-4-61-11-96-34-146-140-113-236l929-2640c34-96 140-146 236-112s147 140 113 236l-929 2641c-27 74-97 123-175 122zm0 0z"/><path d="M10522 10504c-101 0-183-82-184-184V7678c0-102 83-184 184-184 102 0 185 82 185 184v2642c0 49-19 96-54 130-34 35-81 54-131 54zm0 0z"/></g><path fill="#ccc" d="M12569 10688v2690c0 203-165 368-368 368H8844c-203 0-368-165-368-368v-2690c0-203 165-368 368-369h1214v1436l929-566v-870h1214c203 1 368 166 368 369zm0 0z"/><g fill="#f68e76"><path d="M10987 10319v870l-929 566v-1436h929zm0 0zm1140-2790c-135 128-210 306-208 492 1-186-74-363-206-492-130-133-307-208-493-208-383 5-693 316-698 700 2-186-74-364-208-492-129-133-306-208-492-208-384 5-694 316-698 700 2-186-74-364-208-492-129-133-307-208-492-208-186-1-364 74-492 208-131 123-208 422-208 422 0-1543 1252-2794 2795-2793 1543 0 2793 1252 2793 2794-15-56-34-111-56-165-35-90-86-196-153-256-129-133-306-208-491-209a662.2 662.2 0 0 0-485 207zm0 0z"/></g></g></svg>
